<svg xmlns="http://www.w3.org/2000/svg" width="1400" height="900" viewBox="0 0 1400 900" fill="none">
  <g stroke="currentColor" stroke-width="1.4" fill="none" opacity="0.9">
    <path d="M-50 120 C 220 60, 420 180, 660 130 S 1100 40, 1460 150"/>
    <path d="M-50 180 C 240 120, 440 240, 680 190 S 1120 110, 1460 215"/>
    <path d="M-50 250 C 260 195, 470 315, 700 260 S 1140 185, 1460 285"/>
    <path d="M-50 330 C 280 275, 500 400, 720 345 S 1160 270, 1460 365"/>
    <path d="M-50 420 C 300 365, 520 495, 740 440 S 1180 360, 1460 455"/>
    <path d="M-50 520 C 320 465, 540 600, 760 545 S 1200 460, 1460 555"/>
    <path d="M-50 630 C 340 575, 560 715, 780 660 S 1220 575, 1460 665"/>
    <path d="M-50 750 C 360 695, 580 835, 800 780 S 1240 700, 1460 785"/>
  </g>
  <g stroke="currentColor" stroke-width="1" fill="none" opacity="0.5">
    <path d="M-50 150 C 230 90, 430 210, 670 160 S 1110 75, 1460 182"/>
    <path d="M-50 290 C 270 235, 485 357, 710 302 S 1150 227, 1460 325"/>
    <path d="M-50 470 C 310 415, 530 547, 750 492 S 1190 410, 1460 505"/>
    <path d="M-50 690 C 350 635, 570 775, 790 720 S 1230 637, 1460 725"/>
  </g>
</svg>
